<?xml version="1.0" encoding="utf-8"?>
<!-- Generator: Adobe Illustrator 21.0.0, SVG Export Plug-In . SVG Version: 6.00 Build 0)  -->
<svg version="1.1" id="Layer_1" xmlns="http://www.w3.org/2000/svg" xmlns:xlink="http://www.w3.org/1999/xlink" x="0px" y="0px"
	 viewBox="0 0 106 106" style="enable-background:new 0 0 106 106;" xml:space="preserve">
<style type="text/css">
	.st0{fill:#2E3192;}
</style>
<g>
	<path class="st0" d="M4.9,85.9v-7.4H6v2.9h2.2v-2.9h1.1v7.4H8.1v-3.2H6v3.2H4.9L4.9,85.9z M10.1,82.3c0-0.8,0.1-1.4,0.3-1.9
		c0.1-0.3,0.3-0.7,0.5-1c0.3-0.3,0.4-0.5,0.7-0.7c0.3-0.2,0.8-0.3,1.2-0.3c0.9,0,1.4,0.3,2,1c0.5,0.7,0.8,1.6,0.8,2.8
		c0,1.2-0.3,2.1-0.8,2.8c-0.5,0.7-1.1,1-2,1s-1.4-0.3-2-1C10.4,84.4,10.1,83.4,10.1,82.3L10.1,82.3z M11.3,82.3
		c0,0.9,0.2,1.4,0.4,1.9c0.3,0.4,0.7,0.7,1.1,0.7s0.8-0.3,1.1-0.7c0.3-0.4,0.4-1.1,0.4-2s-0.2-1.4-0.4-1.9c-0.3-0.4-0.7-0.6-1.1-0.6
		s-0.9,0.2-1.1,0.6C11.4,80.7,11.3,81.4,11.3,82.3L11.3,82.3z M16.4,85.9v-7.3h1.1v6.1h2.7v1.3H16.4L16.4,85.9z M21.8,85.9h1.1v-3.1
		l2-4.3h-1.3l-1.3,2.9l-1.3-2.9h-1.3l2,4.3L21.8,85.9L21.8,85.9z M32.2,85.9H31l-0.5-1.7h-2.2l-0.4,1.7h-1.2l2.1-7.4H30L32.2,85.9
		L32.2,85.9z M30.2,83l-0.8-2.7L28.7,83H30.2L30.2,83z M32.8,85.9v-7.4h1.1l2.2,4.9v-4.9h1v7.4h-1.1l-2.2-4.9v4.9H32.8L32.8,85.9z
		 M40.9,83.2v-1.3h2.4v3c-0.3,0.3-0.6,0.6-1,0.8c-0.4,0.3-0.9,0.3-1.4,0.3c-0.6,0-1.1-0.2-1.5-0.5s-0.8-0.8-0.9-1.4
		c-0.3-0.6-0.3-1.3-0.3-2c0-0.8,0.1-1.4,0.3-2c0.3-0.6,0.6-1,1-1.4c0.3-0.3,0.8-0.3,1.3-0.3c0.7,0,1.2,0.2,1.6,0.6
		c0.4,0.4,0.6,0.9,0.8,1.6L42,80.9c-0.1-0.3-0.3-0.7-0.4-0.9c-0.3-0.2-0.5-0.3-0.8-0.3c-0.5,0-0.9,0.2-1.2,0.6
		c-0.3,0.4-0.4,1-0.4,1.9s0.2,1.5,0.4,2c0.3,0.4,0.7,0.7,1.1,0.7c0.3,0,0.4-0.1,0.7-0.2c0.3-0.1,0.4-0.3,0.6-0.4v-0.9L40.9,83.2
		L40.9,83.2z M44.3,85.9v-7.4h4.1v1.3h-3v1.6h2.7v1.3h-2.7v2h3.1v1.2H44.3L44.3,85.9z M49.5,85.9v-7.3h1.1v6.1h2.7v1.3H49.5
		L49.5,85.9z M53.9,83.5l1.1-0.2c0.1,0.5,0.2,0.9,0.4,1.1c0.2,0.3,0.4,0.3,0.8,0.3c0.3,0,0.6-0.1,0.8-0.3c0.2-0.2,0.3-0.4,0.3-0.7
		c0-0.2,0-0.3-0.1-0.4c-0.1-0.1-0.2-0.3-0.4-0.3c-0.2-0.1-0.4-0.2-0.9-0.3c-0.6-0.2-1-0.4-1.3-0.8c-0.3-0.4-0.5-0.9-0.5-1.4
		c0-0.3,0.1-0.8,0.3-1c0.2-0.3,0.4-0.6,0.7-0.8c0.3-0.2,0.7-0.3,1.1-0.3c0.7,0,1.2,0.2,1.5,0.6c0.3,0.4,0.5,0.9,0.5,1.6l-1,0.1
		c-0.1-0.3-0.2-0.7-0.3-0.9c-0.2-0.2-0.4-0.3-0.7-0.3c-0.3,0-0.6,0.1-0.8,0.3c-0.1,0.1-0.2,0.3-0.2,0.4c0,0.2,0.1,0.3,0.2,0.4
		c0.2,0.2,0.5,0.3,1,0.5s0.9,0.3,1.2,0.5c0.3,0.2,0.4,0.4,0.6,0.8c0.2,0.3,0.3,0.7,0.3,1.2c0,0.4-0.1,0.9-0.3,1.2
		c-0.2,0.3-0.4,0.7-0.8,0.9c-0.3,0.2-0.7,0.3-1.2,0.3c-0.7,0-1.2-0.3-1.6-0.7C54.2,85,54,84.4,53.9,83.5L53.9,83.5z M59.3,84.5h1v1
		c0,0.4,0,0.8-0.1,0.9c-0.1,0.3-0.2,0.4-0.3,0.6c-0.2,0.2-0.3,0.3-0.6,0.4l-0.2-0.6c0.2-0.1,0.3-0.3,0.4-0.4
		c0.1-0.2,0.2-0.4,0.2-0.7h-0.5L59.3,84.5L59.3,84.5z M63.6,85.9v-7.4h2.3c0.6,0,1,0.1,1.3,0.2c0.3,0.2,0.5,0.3,0.7,0.7
		s0.3,0.8,0.3,1.2c0,0.6-0.1,1-0.3,1.4s-0.6,0.6-1.1,0.7c0.3,0.2,0.4,0.4,0.6,0.6c0.2,0.3,0.3,0.6,0.6,1.2l0.7,1.4h-1.4l-0.8-1.6
		c-0.3-0.6-0.5-0.9-0.6-1.1s-0.3-0.3-0.3-0.3c-0.1-0.1-0.3-0.1-0.6-0.1h-0.3v3.2H63.6L63.6,85.9z M64.7,81.7h0.9c0.5,0,0.9,0,1-0.1
		c0.2-0.1,0.3-0.2,0.3-0.3s0.1-0.3,0.1-0.6c0-0.3-0.1-0.4-0.2-0.6c-0.1-0.2-0.3-0.3-0.4-0.3c-0.1,0-0.3,0-0.9,0h-0.9V81.7L64.7,81.7
		z M74.1,85.9h-1.2l-0.5-1.7h-2.2l-0.4,1.7h-1.2l2.1-7.4h1.2L74.1,85.9L74.1,85.9z M72.1,83l-0.8-2.7L70.5,83H72.1L72.1,83z
		 M76.7,78.5h1.1v4.7c0,0.6,0,1.1-0.1,1.4c-0.1,0.4-0.3,0.8-0.6,1c-0.3,0.3-0.7,0.4-1.1,0.4c-0.5,0-0.9-0.2-1.3-0.6
		c-0.3-0.4-0.4-1-0.4-1.8l1-0.2c0,0.4,0.1,0.7,0.2,0.9c0.1,0.3,0.3,0.4,0.5,0.4c0.3,0,0.4-0.1,0.5-0.3c0.1-0.2,0.2-0.6,0.2-1.2
		L76.7,78.5L76.7,78.5z M79,85.9v-7.4h1.8c0.7,0,1.1,0,1.4,0.1c0.3,0.1,0.6,0.3,0.8,0.7c0.2,0.3,0.3,0.9,0.3,1.4
		c0,0.4-0.1,0.9-0.2,1.1c-0.1,0.3-0.3,0.5-0.4,0.8c-0.2,0.2-0.3,0.3-0.6,0.3C81.8,83,81.4,83,80.8,83h-0.7v2.9H79L79,85.9z
		 M80.1,79.8v2.1h0.6c0.4,0,0.8,0,0.9-0.1c0.2-0.1,0.3-0.2,0.3-0.3c0.1-0.2,0.1-0.3,0.1-0.6c0-0.3-0.1-0.5-0.2-0.7
		c-0.1-0.2-0.3-0.3-0.4-0.3c-0.2,0-0.4-0.1-0.8-0.1H80.1L80.1,79.8z M84.1,78.5h1.1v4c0,0.6,0,1,0,1.3c0.1,0.3,0.2,0.5,0.3,0.8
		c0.2,0.2,0.4,0.3,0.8,0.3s0.6-0.1,0.7-0.3c0.2-0.2,0.3-0.4,0.3-0.6c0-0.3,0.1-0.7,0.1-1.3v-4.1h1.1v3.9c0,0.9,0,1.5-0.1,1.9
		c-0.1,0.3-0.2,0.7-0.3,0.9c-0.2,0.3-0.3,0.4-0.7,0.6c-0.3,0.2-0.6,0.3-1,0.3c-0.5,0-0.9-0.1-1.2-0.3c-0.3-0.2-0.5-0.3-0.7-0.6
		c-0.2-0.3-0.3-0.5-0.3-0.9C84,84,84,83.4,84,82.6L84.1,78.5L84.1,78.5z M89.7,85.9v-7.4H92c0.6,0,1,0.1,1.3,0.2
		c0.3,0.2,0.5,0.3,0.7,0.7c0.2,0.3,0.3,0.8,0.3,1.2c0,0.6-0.1,1-0.3,1.4c-0.3,0.3-0.6,0.6-1.1,0.7c0.3,0.2,0.4,0.4,0.6,0.6
		c0.2,0.3,0.3,0.6,0.6,1.2l0.7,1.5h-1.4l-0.8-1.6c-0.3-0.6-0.5-0.9-0.6-1.1c-0.1-0.2-0.3-0.3-0.3-0.3c-0.1-0.1-0.3-0.1-0.6-0.1h-0.3
		v3.2H89.7L89.7,85.9z M90.8,81.7h0.9c0.5,0,0.9,0,1-0.1c0.2-0.1,0.3-0.2,0.3-0.3c0.1-0.2,0.1-0.3,0.1-0.6c0-0.3-0.1-0.4-0.2-0.6
		c-0.1-0.2-0.3-0.3-0.4-0.3c-0.1,0-0.3,0-0.9,0h-0.9V81.7L90.8,81.7z M100.2,85.9H99l-0.5-1.7h-2.1l-0.4,1.7h-1.3l2.1-7.4H98
		L100.2,85.9L100.2,85.9z M98.2,83l-0.8-2.7L96.6,83H98.2z"/>
</g>
<g>
	<g>
		<path class="st0" d="M106,90.9H0V70.6h0.7c2.6,0,5,0.1,7.2,0.2c9.5,0.3,14.7,0.6,22.6-7.4l0.9,0.9c-8.4,8.4-14.2,8.2-23.6,7.8
			c-2-0.1-4.1-0.2-6.5-0.2v17.7h103.3V71.8c-1.4,0-2.6,0-3.8,0c-11.1,0.1-15.3,0.2-25.3-8.3l0.9-1c9.7,8.1,13.4,8.1,24.5,7.9
			c1.4,0,2.8,0,4.4,0h0.7L106,90.9L106,90.9z"/>
	</g>
	<g>
		<path class="st0" d="M53.2,73.9c-16.5,0-29.8-13.2-29.8-29.3s13.4-29.4,29.8-29.4S83,28.4,83,44.5S69.7,73.9,53.2,73.9z
			 M53.2,16.5c-15.7,0-28.4,12.5-28.4,28.1c0,15.4,12.8,28.1,28.4,28.1s28.4-12.5,28.4-28.1C81.7,29,68.9,16.5,53.2,16.5z"/>
	</g>
	<g>
		<g>
			<path class="st0" d="M55.2,54.1l-2.9-0.3l-1.2-0.8l-10.7,0.9l0.3-16.4l1.6-0.3l2-2.3l6.7,0.2l4.5-0.2l7,0.2l2.2,2.6l1.9-0.9v16.8
				L56.5,53L55.2,54.1z M52.5,53.3l2.5,0.2l1.3-1L66,53V38.1l-1.4,0.7L62.3,36l-6.7-0.2L51.2,36l-6.5-0.2l-2,2.2l-1.4,0.1l-0.2,15
				l10.2-0.8L52.5,53.3z"/>
		</g>
		<g>
			<path class="st0" d="M54.1,50.5l-0.2-0.1c-2.7-1.5-5.8-1.8-9.5-0.8L44,49.8l-0.4-13.5h0.7l0.4,12.6c3.6-0.9,6.7-0.6,9.4,0.9
				c1.8-1.4,4.6-1.7,8.5-1l-0.2-12.8h0.7l0.2,13.6l-0.4-0.1c-4.1-0.8-6.9-0.5-8.6,0.9L54.1,50.5z"/>
		</g>
		<g>
			<path class="st0" d="M41.5,52.5L42,37.9h0.7l-0.4,13.9c3.8-0.3,7.7-0.6,11.4-0.8c2.4-0.1,4.8,0.1,7.1,0.2
				c1.2,0.1,2.5,0.2,3.8,0.2l-0.3-12.9h0.7l0.3,13.6h-0.3c-1.4,0-2.7-0.1-4.1-0.2c-2.3-0.2-4.7-0.3-7.1-0.2
				c-3.9,0.2-7.9,0.4-11.8,0.8H41.5z"/>
		</g>
		<g>
			
				<rect x="41.2" y="50.4" transform="matrix(0.6503 -0.7597 0.7597 0.6503 -23.449 50.4848)" class="st0" width="3.8" height="0.7"/>
		</g>
		<g>
			<rect x="63.5" y="48.7" transform="matrix(0.7909 -0.612 0.612 0.7909 -17.4014 49.609)" class="st0" width="0.7" height="3.1"/>
		</g>
		<g>
			<polygon class="st0" points="53,51.3 53,46.2 50.8,43.4 51.2,31.5 47.7,31.3 46,31.9 44.6,31.9 44.3,27.6 46,27.6 46.8,28 
				51.2,28 51,26.1 49.7,23.7 49.7,21.2 56.4,21.2 55.9,23.8 55.3,26 55.3,27.8 60,27.8 60,27.2 61.3,27.2 61.3,31.9 60,31.9 
				58.6,31.1 55.5,31.1 55.6,43.2 54.1,46.2 54.1,51.5 			"/>
		</g>
		<g>
			<path class="st0" d="M49,37.3v0.8h-2.7v-0.8H49L49,37.3z M49,38.6v0.8h-2.7v-0.8H49L49,38.6z M49,39.9v0.8h-2.7v-0.8H49L49,39.9z
				 M49,41.1v0.8h-2.7v-0.8H49L49,41.1z M49,42.4v0.8h-2.7v-0.8H49L49,42.4z M49,43.7v0.8h-2.7v-0.8H49L49,43.7z M49,45v0.8h-2.7V45
				H49L49,45z M49,46.3V47h-2.7v-0.8H49z"/>
		</g>
		<g>
			<path class="st0" d="M61,37.1v0.8h-2.7v-0.8H61L61,37.1z M61,38.4v0.8h-2.7v-0.8H61L61,38.4z M61,39.7v0.8h-2.7v-0.8H61L61,39.7z
				 M61,41v0.8h-2.7V41H61L61,41z M61,42.3V43h-2.7v-0.8L61,42.3L61,42.3z M61,43.5v0.8h-2.7v-0.8H61L61,43.5z M61,44.8v0.8h-2.7
				v-0.8H61L61,44.8z M61,46.1v0.8h-2.7v-0.8H61z"/>
		</g>
	</g>
	<g>
		<g>
			<g>
				<path class="st0" d="M53,67.2l-0.2-0.2C47,62,40.3,59.7,32.7,60.2h-0.3v-6.5h0.3c8.8-0.7,15.3,0.8,20.5,4.4
					c6.2-3.5,13.5-5,21.7-4.7h0.3l-0.9,6.3h-0.3c-6.4-0.4-13.1,2-20.6,7.3L53,67.2z M34.5,59.4c7,0,13,2.3,18.6,7
					c7.4-5.2,14.2-7.7,20.6-7.3l0.7-4.9c-7.9-0.3-15.1,1.3-21.1,4.7L53.1,59l-0.3-0.2c-5-3.7-11.3-5.1-19.9-4.5v5.1
					C33.4,59.4,34,59.4,34.5,59.4z"/>
			</g>
			<g>
				<polygon class="st0" points="37.6,63.1 32.4,60.2 32.7,59.7 37,61.9 37.1,59.9 37.8,59.9 				"/>
			</g>
			<g>
				<polygon class="st0" points="68.9,63 68.7,59.7 69.4,59.7 69.5,61.8 73.6,59.3 73.9,59.8 				"/>
			</g>
		</g>
		<g>
			<path class="st0" d="M35.2,57.9c0-0.6,0-1.2,0-1.8s0-1.2,0-1.8c0.2,0.1,0.3,0.1,0.6,0.2c0,0.5,0,0.9,0,1.4c0,0.5,0,0.9,0,1.4
				c0.5,0.1,0.9,0.3,1.4,0.3c0,0.2,0,0.4,0,0.6C36.6,58.2,35.9,58,35.2,57.9L35.2,57.9z M37.5,56.8c0-0.3,0.1-0.7,0.2-0.9
				s0.2-0.3,0.3-0.4c0.1-0.1,0.3-0.2,0.3-0.2c0.2,0,0.3,0,0.6,0c0.4,0.1,0.8,0.3,1,0.8c0.1,0.2,0.3,0.4,0.3,0.6
				c0.1,0.3,0.1,0.5,0.1,0.8c0,0.3,0,0.5-0.1,0.7c-0.1,0.2-0.2,0.3-0.3,0.5c-0.3,0.3-0.6,0.3-1,0.2c-0.4-0.1-0.8-0.3-1-0.8
				c-0.1-0.2-0.3-0.4-0.3-0.6C37.5,57.3,37.5,57,37.5,56.8L37.5,56.8z M38.1,56.9c0,0.4,0.1,0.7,0.3,0.9s0.3,0.4,0.6,0.4
				c0.3,0.1,0.4,0,0.6-0.2c0.1-0.1,0.2-0.2,0.2-0.3c0-0.2,0.1-0.3,0.1-0.5c0-0.4-0.1-0.7-0.3-0.9c-0.2-0.3-0.3-0.3-0.6-0.4
				c-0.3-0.1-0.4,0-0.6,0.2S38.1,56.5,38.1,56.9L38.1,56.9z M41.4,59.5c-0.2-0.6-0.3-1.2-0.5-1.9c-0.2-0.6-0.3-1.2-0.5-1.9
				c0.2,0.1,0.4,0.1,0.6,0.2c0.1,0.4,0.3,0.9,0.3,1.4s0.3,0.9,0.3,1.4c0.1-0.4,0.3-0.8,0.3-1.2c0.1-0.4,0.3-0.8,0.3-1.2
				c0.2,0.1,0.4,0.1,0.6,0.2c-0.2,0.5-0.3,1-0.5,1.5c-0.2,0.5-0.3,1-0.5,1.5C41.9,59.6,41.7,59.6,41.4,59.5L41.4,59.5z M43.4,60
				c0-0.6,0-1.1,0-1.7s0-1.1,0-1.7c0.7,0.2,1.4,0.4,2.1,0.6c0,0.2,0,0.3,0,0.6c-0.5-0.2-1-0.3-1.5-0.4c0,0.3,0,0.5,0,0.8
				c0.5,0.2,0.9,0.3,1.4,0.4c0,0.2,0,0.3,0,0.6c-0.5-0.1-0.9-0.3-1.4-0.3c0,0.2,0,0.3,0,0.4c0,0.2,0,0.3,0,0.4
				c0.5,0.2,1,0.3,1.6,0.4c0,0.2,0,0.3,0,0.6C44.9,60.3,44.1,60.2,43.4,60L43.4,60z M47.2,60.9c0-0.5,0-1.1,0-1.6c0-0.5,0-1.1,0-1.6
				c0.2,0.1,0.4,0.1,0.6,0.2c0,0.5,0,1.1,0,1.6s0,1.1,0,1.6C47.5,61,47.3,61,47.2,60.9L47.2,60.9z M48.1,60.2c0.2,0,0.3,0.1,0.6,0.1
				c0,0.3,0.1,0.4,0.2,0.5c0.1,0.1,0.3,0.3,0.4,0.3c0.2,0.1,0.3,0,0.4,0c0.1-0.1,0.2-0.2,0.2-0.3c0-0.1,0-0.2-0.1-0.2
				c0-0.1-0.1-0.2-0.2-0.2c-0.1-0.1-0.3-0.2-0.4-0.3c-0.3-0.2-0.5-0.3-0.7-0.5c-0.2-0.3-0.3-0.4-0.3-0.8c0-0.2,0-0.3,0.1-0.4
				c0.1-0.1,0.2-0.2,0.3-0.3c0.2,0,0.3,0,0.6,0c0.3,0.1,0.6,0.3,0.8,0.5s0.3,0.5,0.3,0.8c-0.2-0.1-0.4-0.1-0.6-0.1
				c0-0.2-0.1-0.3-0.2-0.4c-0.1-0.1-0.2-0.2-0.3-0.2c-0.2-0.1-0.3,0-0.4,0c-0.1,0-0.1,0.1-0.1,0.2c0,0.1,0,0.2,0.1,0.3
				c0.1,0.1,0.3,0.2,0.5,0.3s0.5,0.3,0.6,0.4c0.2,0.1,0.3,0.3,0.3,0.4s0.1,0.3,0.1,0.5c0,0.2-0.1,0.3-0.2,0.5
				c-0.1,0.2-0.3,0.3-0.4,0.3s-0.3,0-0.6,0c-0.3-0.1-0.6-0.3-0.9-0.5C48.3,60.8,48.2,60.5,48.1,60.2L48.1,60.2z M52.7,62.4
				c0-0.4,0-0.9,0-1.3c0-0.4,0-0.9,0-1.3c-0.3-0.1-0.6-0.2-0.9-0.3c0-0.2,0-0.3,0-0.5c0.8,0.2,1.5,0.4,2.3,0.6c0,0.2,0,0.3,0,0.5
				c-0.3-0.1-0.6-0.1-0.9-0.2c0,0.4,0,0.9,0,1.3s0,0.9,0,1.3C53,62.5,52.9,62.4,52.7,62.4L52.7,62.4z M54.2,61.1
				c0-0.3,0.1-0.5,0.2-0.8c0.1-0.2,0.2-0.3,0.3-0.4c0.1-0.2,0.3-0.3,0.3-0.3c0.2-0.2,0.3-0.3,0.6-0.3c0.4-0.2,0.8-0.1,1,0.1
				c0.1,0.1,0.3,0.3,0.3,0.4c0.1,0.2,0.1,0.3,0.1,0.6s0,0.4-0.1,0.7c-0.1,0.2-0.2,0.4-0.3,0.5c-0.3,0.3-0.6,0.6-1,0.7
				c-0.4,0.1-0.8,0.1-1-0.1c-0.1-0.1-0.3-0.3-0.3-0.3C54.3,61.5,54.2,61.3,54.2,61.1L54.2,61.1z M54.8,60.9c0,0.3,0.1,0.5,0.3,0.7
				c0.2,0.1,0.3,0.2,0.6,0.1c0.3-0.1,0.4-0.2,0.6-0.4c0.1-0.1,0.1-0.3,0.2-0.3c0-0.2,0.1-0.3,0.1-0.4c0-0.3-0.1-0.6-0.3-0.7
				c-0.2-0.1-0.3-0.2-0.6-0.1c-0.3,0.1-0.4,0.3-0.6,0.4C54.9,60.3,54.8,60.6,54.8,60.9L54.8,60.9z M58.4,60.4
				c0.2-0.1,0.3-0.2,0.6-0.3c0,0.2,0.1,0.3,0.2,0.3c0.1,0.1,0.3,0.1,0.4,0c0.2-0.1,0.3-0.2,0.4-0.3c0.1-0.1,0.2-0.3,0.2-0.3
				c0-0.1,0-0.2-0.1-0.2c0,0-0.1-0.1-0.2-0.1s-0.3,0-0.4,0c-0.3,0-0.5,0-0.7-0.1c-0.2-0.1-0.3-0.3-0.3-0.5c0-0.2,0-0.3,0.1-0.4
				c0.1-0.2,0.2-0.3,0.3-0.4c0.2-0.1,0.3-0.2,0.6-0.3c0.3-0.1,0.6-0.1,0.8,0c0.2,0.1,0.3,0.3,0.3,0.6c-0.2,0.1-0.4,0.2-0.6,0.2
				c0-0.2-0.1-0.3-0.2-0.3c-0.1-0.1-0.2,0-0.3,0c-0.2,0.1-0.3,0.2-0.4,0.3C59,58.8,59,58.9,59,59c0,0.1,0,0.1,0.1,0.2
				c0.1,0,0.3,0.1,0.5,0.1c0.3,0,0.5,0,0.6,0c0.2,0,0.3,0.1,0.3,0.3c0.1,0.1,0.1,0.3,0.1,0.4s-0.1,0.3-0.2,0.5
				c-0.1,0.2-0.3,0.3-0.4,0.4c-0.2,0.1-0.3,0.2-0.6,0.3c-0.3,0.1-0.6,0.1-0.9,0C58.6,60.9,58.5,60.8,58.4,60.4L58.4,60.4z
				 M61.2,60.6c0-0.5,0-1,0-1.5c0-0.5,0-1,0-1.5c0.7-0.3,1.4-0.4,2.1-0.7c0,0.2,0,0.3,0,0.5c-0.5,0.2-1,0.3-1.5,0.4
				c0,0.3,0,0.4,0,0.7c0.5-0.2,0.9-0.3,1.4-0.4c0,0.2,0,0.3,0,0.5c-0.5,0.2-0.9,0.3-1.4,0.4c0,0.2,0,0.3,0,0.4s0,0.3,0,0.4
				c0.5-0.2,1-0.3,1.6-0.4c0,0.2,0,0.3,0,0.5C62.7,60.2,62,60.4,61.2,60.6L61.2,60.6z M63.9,59.9c0-0.5,0-1.1,0-1.6s0-1.1,0-1.6
				c0.4-0.1,0.8-0.3,1.2-0.3c0.3-0.1,0.5-0.2,0.7-0.1c0.2,0,0.3,0.1,0.3,0.3c0.1,0.1,0.1,0.3,0.1,0.5s-0.1,0.5-0.2,0.7
				c-0.1,0.2-0.3,0.3-0.6,0.4c0.1,0.1,0.3,0.1,0.3,0.2c0.1,0.1,0.2,0.3,0.3,0.4c0.1,0.2,0.3,0.3,0.3,0.5c-0.3,0.1-0.4,0.1-0.7,0.2
				c-0.2-0.2-0.3-0.4-0.4-0.6c-0.2-0.2-0.3-0.3-0.3-0.4c-0.1-0.1-0.1-0.1-0.2-0.1s-0.2,0-0.3,0.1h-0.1c0,0.3,0,0.4,0,0.7
				c0,0.3,0,0.4,0,0.7C64.3,59.8,64.1,59.8,63.9,59.9L63.9,59.9z M64.5,57.9c0.2,0,0.3-0.1,0.4-0.1c0.3-0.1,0.4-0.2,0.5-0.2
				c0.1-0.1,0.1-0.1,0.2-0.2c0-0.1,0.1-0.2,0.1-0.3s0-0.2-0.1-0.3c-0.1-0.1-0.1-0.1-0.3-0.1c-0.1,0-0.2,0.1-0.4,0.1
				c-0.2,0.1-0.3,0.1-0.4,0.2C64.5,57.3,64.5,57.6,64.5,57.9L64.5,57.9z M67.5,59c0.2-0.1,0.4-0.1,0.6-0.2c0.2-0.6,0.3-1.2,0.5-1.9
				c0.2-0.6,0.3-1.3,0.5-1.9c-0.2,0.1-0.4,0.1-0.6,0.2c-0.1,0.4-0.3,0.9-0.3,1.4c-0.1,0.4-0.3,0.9-0.3,1.4c-0.1-0.3-0.3-0.8-0.3-1.1
				c-0.1-0.3-0.3-0.8-0.3-1.1c-0.2,0.1-0.4,0.2-0.6,0.2c0.2,0.5,0.3,1,0.5,1.5C67.1,57.9,67.3,58.5,67.5,59L67.5,59z M69.3,58.4
				c0-0.6,0-1.1,0-1.7c0-0.6,0-1.1,0-1.7c0.7-0.3,1.4-0.4,2.1-0.7c0,0.2,0,0.4,0,0.6c-0.5,0.2-1,0.3-1.5,0.5c0,0.3,0,0.5,0,0.8
				c0.5-0.2,0.9-0.3,1.4-0.4c0,0.2,0,0.4,0,0.6c-0.5,0.2-0.9,0.3-1.4,0.4c0,0.2,0,0.3,0,0.5s0,0.3,0,0.5c0.5-0.2,1-0.3,1.6-0.4
				c0,0.2,0,0.4,0,0.6C70.8,58,70.1,58.2,69.3,58.4z"/>
		</g>
	</g>
</g>
</svg>
